Coordinates
version=1
nRows=17
nColumns=36
inDegrees=yes

Units are S.I. units (second, meters, Newtons, ...)
If the header above contains a line with 'inDegrees', this indicates whether rotational values are in degrees (yes) or radians (no).

endheader
time	pelvis_tilt	pelvis_list	pelvis_rotation	pelvis_tx	pelvis_ty	pelvis_tz	hip_flexion_r	hip_adduction_r	hip_rotation_r	knee_angle_r	knee_angle_r_beta	ankle_angle_r	subtalar_angle_r	mtp_angle_r	hip_flexion_l	hip_adduction_l	hip_rotation_l	knee_angle_l	knee_angle_l_beta	ankle_angle_l	subtalar_angle_l	mtp_angle_l	lumbar_extension	lumbar_bending	lumbar_rotation	arm_flex_r	arm_add_r	arm_rot_r	elbow_flex_r	pro_sup_r	arm_flex_l	arm_add_l	arm_rot_l	elbow_flex_l	pro_sup_l
      1.21666670	     -5.86684437	      3.42513715	      3.00942378	     -0.07558332	      1.20775331	     -0.03138750	      1.49746182	      1.57323521	     -0.51308986	      3.46100863	      0.06040600	      6.57245763	     -0.13499931	     -7.49999987	      0.72834032	     -0.84356927	     -3.02269087	      2.23631692	      0.03903109	      4.56509803	      4.18102569	     -7.49999987	     -3.73771169	     -2.24281227	      1.65634708	      3.05063667	    -11.58267767	     50.65553827	     22.20974697	     48.85787027	      8.12541350	     -8.16618167	     66.72305794	     19.30131986	     38.95488052
      1.23333330	     -6.05930708	      3.33410357	      3.00655140	     -0.07544812	      1.20545040	     -0.03221319	      1.45532848	      1.62394347	     -0.70997442	      2.99721829	      0.05231133	      6.11742992	     -0.09966228	     -7.49999987	      0.66172726	     -0.90115195	     -3.23121564	      1.83886670	      0.03209428	      4.64666405	      4.48498079	     -7.49999987	     -3.66247265	     -2.10516914	      1.64085641	      3.22654870	    -11.19385240	     48.45553187	     21.97945542	     53.15595573	      7.46490228	     -8.11914204	     63.52947712	     18.54130148	     44.95179613
      1.25000000	     -5.97496463	      3.31132633	      2.96427511	     -0.07461416	      1.20594104	     -0.03235417	      1.04509212	      1.60379255	     -1.10858081	      2.50696550	      0.04375480	      5.82535839	      0.38825187	     -7.49999987	      0.28116908	     -0.89396587	     -3.55396049	      1.48005773	      0.02583188	      4.66729415	      4.80639035	     -7.49999987	     -3.76812275	     -2.04377035	      1.82250816	      4.10625970	    -11.50056740	     53.69730549	     22.24754939	     46.85227277	      7.90679810	     -8.64390601	     70.89306870	     18.87555897	     32.58458889
      1.26666670	     -6.08871575	      3.24930572	      3.01140001	     -0.07430231	      1.20729166	     -0.03220780	      0.91431557	      1.65849029	     -1.30253319	      2.08277102	      0.03635121	      5.87358680	      1.01235841	     -7.49999987	      0.19268468	     -0.92938004	     -3.80477994	      1.21288419	      0.02116882	      4.93894451	      5.28435871	     -7.49999987	     -3.84168066	     -1.94230638	      1.83768635	      4.16984788	    -11.28971626	     50.91403165	     22.50142019	     51.04829387	      7.34872733	     -8.83398660	     66.98751122	     18.63003930	     38.85054195
      1.28333330	     -6.11735635	      3.21713775	      3.07497256	     -0.07687915	      1.20701038	     -0.03204053	      0.76634139	      1.68545979	     -1.33597021	      1.75845584	      0.03069084	      6.03989414	      1.57393378	     -7.49999987	      0.12023419	     -0.93909950	     -3.89234308	      1.03118887	      0.01799764	      5.10302540	      5.51891124	     -7.49999987	     -3.88429833	     -1.84934920	      1.77250165	      5.02196041	    -11.40160972	     54.31697188	     22.43794488	     47.58908484	      7.58696945	     -9.33224917	     70.95545290	     18.74184193	     32.23841868
      1.30000000	     -6.12718763	      3.16745466	      3.16271037	     -0.07468161	      1.20665239	     -0.03260830	      0.56810233	      1.70417112	     -1.39296859	      1.48714001	      0.02595549	      6.23967002	      2.16201004	     -7.49999987	      0.00577677	     -0.96592241	     -4.05025071	      0.90908369	      0.01586650	      5.36985922	      5.97207629	     -7.49999987	     -3.96905991	     -1.72548431	      1.73042443	      5.35946773	    -11.34110753	     54.24307957	     22.46019731	     48.00160883	      7.65171363	     -9.72486672	     71.29583856	     18.69144423	     31.76545038
      1.31666670	     -6.19774912	      3.09785996	      3.27020135	     -0.07595754	      1.20477267	     -0.03204601	      0.52606662	      1.78217768	     -1.21082283	      1.24294192	      0.02169343	      6.69482920	      2.72534281	     -7.49999987	      0.05288499	     -1.01547372	     -4.04823462	      0.85055354	      0.01484496	      5.72794348	      6.06823030	     -7.49999987	     -3.95403890	     -1.59493402	      1.49990857	      5.77934936	    -11.27567285	     54.34764255	     22.50028025	     48.63243802	      7.61168177	    -10.20112988	     70.83572589	     18.80536621	     31.77122459
      1.33333330	     -6.08443169	      3.08122834	      3.34136878	     -0.07305858	      1.20241263	     -0.03290922	      0.21667946	      1.77489821	     -1.18427227	      1.04721017	      0.01827727	      7.11469260	      3.34447797	     -7.49999987	     -0.13337525	     -1.02828096	     -4.28396816	      0.79075169	      0.01380122	      6.11674465	      6.65543489	     -7.49999987	     -4.11850345	     -1.50945746	      1.25100685	      6.02409010	    -11.22771248	     52.90222563	     22.60111766	     54.36969654	      7.26776590	    -10.69356906	     67.19736133	     18.81861845	     40.71848188
      1.35000000	     -6.14479913	      3.00037421	      3.31859866	     -0.07560576	      1.20301880	     -0.03288368	      0.17228974	      1.82639626	     -0.92229457	      0.93981758	      0.01640291	      7.29873600	      3.38198411	     -7.49999987	     -0.06404916	     -1.08335221	     -4.21631455	      0.74855705	      0.01306479	      6.44708609	      6.59385953	     -7.49999987	     -4.02967968	     -1.37058701	      1.34506830	      6.38210452	    -11.32036838	     54.12185166	     22.80571248	     49.50040483	      7.71272834	    -11.09049482	     70.03580862	     18.90652316	     31.92398379
      1.36666670	     -6.04390288	      2.97261269	      3.28442539	     -0.07206083	      1.20055951	     -0.03358463	     -0.16688456	      1.81614905	     -0.84472451	      0.83946943	      0.01465151	      7.32690305	      3.39471408	     -7.49999987	     -0.23794485	     -1.08022040	     -4.32244913	      0.74021966	      0.01291927	      6.60428236	      6.76698607	     -7.49999987	     -4.05111867	     -1.27392042	      1.36861490	      6.54613353	    -11.37103377	     53.68226527	     22.98638337	     50.12237509	      7.72266700	    -11.49397456	     69.33714968	     18.98549927	     31.98742047
      1.38333330	     -6.03092759	      2.93901845	      3.19338548	     -0.07277041	      1.20065159	     -0.03360375	     -0.34679910	      1.82006379	     -0.79850565	      0.82717128	      0.01443686	      7.42116843	      3.36361519	     -7.49999987	     -0.33667489	     -1.07823266	     -4.45713769	      0.78483160	      0.01369790	      6.82836145	      6.82231662	     -7.49999987	     -3.96872216	     -1.17635177	      1.48005703	      6.74636431	    -11.49041477	     53.54442635	     23.20544044	     50.56836241	      7.66759183	    -11.87487840	     68.39483868	     19.15518107	     31.98893759
      1.40000000	     -5.98897716	      2.92818290	      3.13911563	     -0.07537630	      1.19645057	     -0.03368203	     -0.46677008	      1.81089230	     -0.78957910	      0.82120219	      0.01433268	      7.69189574	      3.11581121	     -7.49999987	     -0.37520934	     -1.05270353	     -4.24626652	      0.91428876	      0.01595735	      6.92941602	      6.52261046	     -7.49999987	     -3.98622521	     -1.12293611	      1.75537290	      6.79394502	    -11.53083084	     52.66748800	     23.35177134	     51.19311764	      7.82019221	    -12.22174240	     67.01920048	     19.30431942	     34.02443976
      1.41666670	     -6.07122841	      2.93177953	      3.03509577	     -0.08116342	      1.19854563	     -0.03036792	     -0.27934569	      1.85106513	     -0.58032499	      0.81933070	      0.01430002	      8.21354695	      3.14019599	     -7.49999987	     -0.12474117	     -1.07170517	     -4.16144705	      1.12366925	      0.01961173	      7.08524227	      6.44400938	     -7.49999987	     -4.04937999	     -1.15724306	      1.87637783	      7.26851194	    -11.50248396	     52.70477699	     23.48100897	     51.21849228	      8.26899388	    -12.61550473	     66.91882230	     19.26620089	     33.97228795
      1.43333330	     -6.17151997	      2.94852638	      2.90196767	     -0.07531034	      1.19498567	     -0.03295558	     -0.20811511	      1.82281237	     -0.14926204	      0.87519443	      0.01527502	      8.41168203	      2.39958710	     -7.49999987	      0.19657093	     -1.07495683	     -4.35084176	      1.56629066	      0.02733693	      7.54249586	      6.92416149	     -7.49999987	     -3.91605576	     -1.16746282	      1.84013385	      7.44300504	    -11.55216746	     52.50517074	     23.75579921	     52.42882903	      8.10390385	    -12.91577015	     64.77057377	     19.38183191	     35.68886513
      1.45000000	     -6.06808286	      2.98027281	      2.86226083	     -0.07598790	      1.19403580	     -0.03354320	     -0.29547314	      1.78682110	     -0.41379211	      0.98466958	      0.01718573	      9.01436304	      2.77603890	     -7.49999987	      0.45740747	     -1.03426090	     -3.82881058	      2.17685445	      0.03799328	      7.62686741	      5.92426187	     -7.49999987	     -4.23655302	     -1.16810061	      1.58003936	      8.01835778	    -11.68094343	     52.76279733	     23.94912999	     56.60586336	      7.81646723	    -13.44972213	     60.26749175	     20.31297698	     42.83432842
      1.46666670	     -6.15762221	      3.01908257	      2.84222246	     -0.07365273	      1.19166804	     -0.03455651	     -0.20473308	      1.70833886	     -0.44062227	      1.12204328	      0.01958335	      9.41573998	      2.70281429	     -7.49999987	      1.03905292	     -0.99168715	     -3.29007102	      3.13955484	      0.05479557	      7.90460622	      5.03087883	     -7.49999987	     -4.17606986	     -1.21517654	      1.75078456	      8.09924253	    -11.87546126	     53.74617464	     24.40449846	     51.51187003	      8.21725710	    -13.76389375	     62.43178895	     20.68838141	     34.30894523
      1.48333330	     -6.32884220	      3.09909428	      2.81963653	     -0.07389032	      1.19223179	     -0.03544888	      0.03953345	      1.56820136	     -0.49795621	      1.32120445	      0.02305937	     10.10581831	      2.95275225	     -7.49999987	      1.95447283	     -0.90104812	     -2.91242153	      4.50448931	      0.07861817	      8.22141541	      4.11662986	     -7.49999987	     -4.25129475	     -1.34176387	      2.02052050	      7.46600162	    -11.96582599	     49.43716232	     25.34388472	     55.95497140	      7.88849904	    -13.81577910	     56.43289060	     21.09981661	     44.09292252
